<svg version="1.1" xmlns="http://www.w3.org/2000/svg" xmlns:xlink="http://www.w3.org/1999/xlink" width="800" height="800"><g fill="none" fill-rule="nonzero" stroke="none" stroke-width="none" stroke-linecap="butt" stroke-linejoin="miter" stroke-miterlimit="10" stroke-dasharray="" stroke-dashoffset="0" font-family="none" font-weight="none" font-size="none" text-anchor="none" style="mix-blend-mode: normal"><path d="M364.39665,555.98847l-64.15502,-30.89543l-44.39665,-55.67164l-15.84498,-69.4214l15.84498,-69.4214l44.39665,-55.67164l64.15502,-30.89543h71.2067l64.15502,30.89543l44.39665,55.67164l15.84498,69.4214l-15.84498,69.4214l-44.39665,55.67164l-64.15502,30.89543z" data-paper-data="{&quot;isPatternBaseShape&quot;:true}" stroke="#7e77ff" stroke-width="1"/><path d="M364.39665,555.98847h71.2067l35.60335,61.66681l-35.60335,61.66681h-71.2067l-35.60335,-61.66681z" stroke="#426072" stroke-width="1"/><path d="M255.84498,469.4214l44.39665,55.67164l-26.01473,66.28445l-70.41138,10.61281l-44.39665,-55.67164l26.01473,-66.28445z" stroke="#426072" stroke-width="1"/><path d="M255.84498,330.5786l-15.84498,69.4214l-68.04319,20.98854l-52.1982,-48.43286l15.84498,-69.4214l68.04319,-20.98854z" stroke="#426072" stroke-width="1"/><path d="M364.39665,244.01153l-64.15502,30.89543l-58.83374,-40.11216l5.32128,-71.00759l64.15502,-30.89543l58.83374,40.11216z" stroke="#426072" stroke-width="1"/><path d="M499.75837,274.90696l-64.15502,-30.89543l-5.32128,-71.00759l58.83374,-40.11216l64.15502,30.89543l5.32128,71.00759z" stroke="#426072" stroke-width="1"/><path d="M560,400l-15.84498,-69.4214l52.1982,-48.43286l68.04319,20.98854l15.84498,69.4214l-52.1982,48.43286z" stroke="#426072" stroke-width="1"/><path d="M499.75837,525.09304l44.39665,-55.67164l70.41138,10.61281l26.01473,66.28445l-44.39665,55.67164l-70.41138,-10.61281z" stroke="#426072" stroke-width="1"/><path d="M364.39665,555.98847l-35.60335,61.66681l-69.65066,-14.80471l-7.44313,-70.81662l65.05056,-28.96237z" stroke="#308820" stroke-width="2"/><path d="M435.60335,555.98847h-71.2067l-22.00408,-67.72159l57.60743,-41.85425l57.60743,41.85425z" stroke="#308820" stroke-width="2"/><path d="M471.2067,617.65528l-35.60335,-61.66681l47.64658,-52.91689l65.05056,28.96237l-7.44313,70.81662z" stroke="#308820" stroke-width="2"/><path d="M435.60335,679.32209l35.60335,-61.66681l69.65066,14.80471l7.44313,70.81662l-65.05056,28.96237z" stroke="#308820" stroke-width="2"/><path d="M364.39665,679.32209h71.2067l22.00408,67.72159l-57.60743,41.85425l-57.60743,-41.85425z" stroke="#308820" stroke-width="2"/><path d="M328.7933,617.65528l35.60335,61.66681l-47.64658,52.91689l-65.05056,-28.96237l7.44313,-70.81662z" stroke="#308820" stroke-width="2"/><path d="M255.84498,469.4214l-70.41138,10.61281l-31.85169,-63.68566l50.72595,-49.97271l63.20205,32.80083z" stroke="#308820" stroke-width="2"/><path d="M300.24163,525.09304l-44.39665,-55.67164l39.22756,-59.42721l68.64061,18.94361l3.19468,71.135z" stroke="#308820" stroke-width="2"/><path d="M274.2269,591.37748l26.01473,-66.28445l71.07925,4.25846l17.91466,68.91632l-60.00738,38.33417z" stroke="#308820" stroke-width="2"/><path d="M203.81552,601.99029l70.41138,-10.61281l31.85169,63.68566l-50.72595,49.97271l-63.20205,-32.80083z" stroke="#308820" stroke-width="2"/><path d="M159.41887,546.31865l44.39665,55.67164l-39.22756,59.42721l-68.64061,-18.94361l-3.19468,-71.135z" stroke="#308820" stroke-width="2"/><path d="M185.4336,480.03421l-26.01473,66.28445l-71.07925,-4.25846l-17.91466,-68.91632l60.00738,-38.33417z" stroke="#308820" stroke-width="2"/><path d="M255.84498,330.5786l-52.1982,-48.43286l29.93225,-64.61002l70.69735,8.50167l13.76112,69.86434z" stroke="#308820" stroke-width="2"/><path d="M240,400l15.84498,-69.4214l70.92004,-6.38292l27.98602,65.47654l-53.62373,46.84964z" stroke="#308820" stroke-width="2"/><path d="M171.95681,420.98854l68.04319,-20.98854l40.98779,58.2271l-42.71134,56.97487l-67.38485,-23.01469z" stroke="#308820" stroke-width="2"/><path d="M119.75861,372.55569l52.1982,48.43286l-29.93225,64.61002l-70.69735,-8.50167l-13.76112,-69.86434z" stroke="#308820" stroke-width="2"/><path d="M135.60359,303.13429l-15.84498,69.4214l-70.92004,6.38292l-27.98602,-65.47654l53.62373,-46.84964z" stroke="#308820" stroke-width="2"/><path d="M203.64678,282.14575l-68.04319,20.98854l-40.98779,-58.2271l42.71134,-56.97487l67.38485,23.01469z" stroke="#308820" stroke-width="2"/><path d="M364.39665,244.01153l5.32128,-71.00759l69.1766,-16.88171l37.43221,60.57412l-46.04222,54.31858z" stroke="#308820" stroke-width="2"/><path d="M300.24163,274.90696l64.15502,-30.89543l49.20829,51.46784l-33.74262,62.7043l-70.06238,-12.71445z" stroke="#308820" stroke-width="2"/><path d="M241.4079,234.7948l58.83374,40.11216l-19.96831,68.34955l-71.17483,2.13018l-24.02015,-67.03302z" stroke="#308820" stroke-width="2"/><path d="M246.72918,163.78721l-5.32128,71.00759l-69.1766,16.88171l-37.43221,-60.57412l46.04222,-54.31858z" stroke="#308820" stroke-width="2"/><path d="M310.8842,132.89178l-64.15502,30.89543l-49.20829,-51.46784l33.74262,-62.7043l70.06238,12.71445z" stroke="#308820" stroke-width="2"/><path d="M369.71793,173.00394l-58.83374,-40.11216l19.96831,-68.34955l71.17483,-2.13018l24.02015,67.03302z" stroke="#308820" stroke-width="2"/><path d="M499.75837,274.90696l58.83374,-40.11216l56.32956,43.55887l-24.02015,67.03302l-71.17483,-2.13018z" stroke="#308820" stroke-width="2"/><path d="M435.60335,244.01153l64.15502,30.89543l-9.55831,70.56226l-70.06238,12.71445l-33.74262,-62.7043z" stroke="#308820" stroke-width="2"/><path d="M430.28207,173.00394l5.32128,71.00759l-65.88786,27.00339l-46.04222,-54.31858l37.43221,-60.57412z" stroke="#308820" stroke-width="2"/><path d="M489.1158,132.89178l-58.83374,40.11216l-56.32956,-43.55887l24.02015,-67.03302l71.17483,2.13018z" stroke="#308820" stroke-width="2"/><path d="M553.27082,163.78721l-64.15502,-30.89543l9.55831,-70.56226l70.06238,-12.71445l33.74262,62.7043z" stroke="#308820" stroke-width="2"/><path d="M558.5921,234.7948l-5.32128,-71.00759l65.88786,-27.00339l46.04222,54.31858l-37.43221,60.57412z" stroke="#308820" stroke-width="2"/><path d="M560,400l68.04319,20.98854l1.06521,71.19873l-67.38485,23.01469l-42.71134,-56.97487z" stroke="#308820" stroke-width="2"/><path d="M544.15502,330.5786l15.84498,69.4214l-61.1273,36.52186l-53.62373,-46.84964l27.98602,-65.47654z" stroke="#308820" stroke-width="2"/><path d="M596.35322,282.14575l-52.1982,48.43286l-62.19251,-34.67687l13.76112,-69.86434l70.69735,-8.50167z" stroke="#308820" stroke-width="2"/><path d="M664.39641,303.13429l-68.04319,-20.98854l-1.06521,-71.19873l67.38485,-23.01469l42.71134,56.97487z" stroke="#308820" stroke-width="2"/><path d="M680.24139,372.55569l-15.84498,-69.4214l61.1273,-36.52186l53.62373,46.84964l-27.98602,65.47654z" stroke="#308820" stroke-width="2"/><path d="M628.04319,420.98854l52.1982,-48.43286l62.19251,34.67687l-13.76112,69.86434l-70.69735,8.50167z" stroke="#308820" stroke-width="2"/><path d="M499.75837,525.09304l26.01473,66.28445l-55.00126,45.2245l-60.00738,-38.33417l17.91466,-68.91632z" stroke="#308820" stroke-width="2"/><path d="M544.15502,469.4214l-44.39665,55.67164l-66.66619,-25.02024l3.19468,-71.135l68.64061,-18.94361z" stroke="#308820" stroke-width="2"/><path d="M614.5664,480.03421l-70.41138,-10.61281l-11.66493,-70.24474l63.20205,-32.80083l50.72595,49.97271z" stroke="#308820" stroke-width="2"/><path d="M640.58113,546.31865l-26.01473,-66.28445l55.00126,-45.2245l60.00738,38.33417l-17.91466,68.91632z" stroke="#308820" stroke-width="2"/><path d="M596.18448,601.99029l44.39665,-55.67164l66.66619,25.02024l-3.19468,71.135l-68.64061,18.94361z" stroke="#308820" stroke-width="2"/><path d="M525.7731,591.37748l70.41138,10.61281l11.66493,70.24474l-63.20205,32.80083l-50.72595,-49.97271z" stroke="#308820" stroke-width="2"/><path d="M300.24163,525.09304l64.15502,30.89543l49.20829,-51.46784l-33.74262,-62.7043l-70.06238,12.71445z" stroke="#584c4a" stroke-width="1"/><path d="M240,400l15.84498,69.4214l70.92004,6.38292l27.98602,-65.47654l-53.62373,-46.84964z" stroke="#584c4a" stroke-width="1"/><path d="M300.24163,274.90696l-44.39665,55.67164l39.22756,59.42721l68.64061,-18.94361l3.19468,-71.135z" stroke="#584c4a" stroke-width="1"/><path d="M435.60335,244.01153h-71.2067l-22.00408,67.72159l57.60743,41.85425l57.60743,-41.85425z" stroke="#584c4a" stroke-width="1"/><path d="M544.15502,330.5786l-44.39665,-55.67164l-66.66619,25.02024l3.19468,71.135l68.64061,18.94361z" stroke="#584c4a" stroke-width="1"/><path d="M544.15502,469.4214l15.84498,-69.4214l-61.1273,-36.52186l-53.62373,46.84964l27.98602,65.47654z" stroke="#584c4a" stroke-width="1"/><path d="M435.60335,555.98847l64.15502,-30.89543l-9.55831,-70.56226l-70.06238,-12.71445l-33.74262,62.7043z" stroke="#584c4a" stroke-width="1"/></g></svg>